<svg id="Lag_1" data-name="Lag 1" xmlns="http://www.w3.org/2000/svg" viewBox="0 0 555 250"><defs><style>.cls-1{fill: none;}.cls-2{font-size:186.89px;font-family:ErasITC-Medium, Eras Medium ITC;font-weight:500;}.cls-2,.cls-3{fill:#1d1d1b;}</style></defs><path class="cls-1" d="M234.75,367.3H105.12V125.53H346.88V367.3H245.12a5.1,5.1,0,0,1,1.07-.43c21.88-2.65,39.48-21.84,40-44.49.46-18.16-10.26-35.88-26.87-43.19-3.3-1.44-6.79-2.44-10.82-3.86,1.23,4.07,2.11,7.32,3.24,10.47a5.4,5.4,0,0,0,2.15,2.4c2.7,1.68,5.51,3.17,8.57,4.92-4.23,4.22-8,8.24-12,11.91a24.74,24.74,0,0,0-6.62,10.59c2.73,3.1,3.36,5.13,2.25,7.81-1.26,3-3.62,4.35-6.89,4.25-.47,0-1.19.66-1.41,1.18-1.06,2.51-2.29,4.73-1.85,7.91.7,5,.19,10.19.19,15.29v4.35a31.25,31.25,0,0,1-13.65-4.31,8.26,8.26,0,0,0-5.06-1.32,17,17,0,0,1-17.13-11.42,17.18,17.18,0,0,1,.67-13.5,82.1,82.1,0,0,0,4.73-13.67,32.48,32.48,0,0,1,5.76-11.91c2.11-2.67,3.23-5.63,4.79-8.46a2.64,2.64,0,0,0,.36-1.75c-.65-2.39-1.44-4.74-2.26-7.39-13.72,10-20.8,23.12-20.46,39.74.4,19.23,12.41,35.49,30.52,42.09C227.75,365.73,231.3,366.39,234.75,367.3Zm-29.16-125c-6.05.86-9.3,3.83-9.61,8.57s2.42,8.16,8.05,9.72c3.62,1,7.23,2.05,10.89,2.91a2.94,2.94,0,0,1,2.44,2.39c2.3,7.73,4.74,15.41,7,23.16a6.6,6.6,0,0,1-.32,4.18c-5.27,12-10.71,23.87-16,35.82-2.41,5.43-.35,11,4.7,13.27s10.44.18,12.9-5.2c6.21-13.61,12.31-27.27,18.44-40.92a10.3,10.3,0,0,0,.54-7.56c-1.66-5.3-3.27-10.62-4.89-15.93-1.57-5.15-3.12-10.31-4.73-15.63h22c-1.08,4-2.12,7.91-3,11.28l17.75,8.4c2.43-8.81,5.1-17.81,7.36-26.91,1.7-6.84-2.7-12.11-9.8-12.21-6-.08-11.94,0-17.91-.15-5.36-.11-9.41-2.34-11.86-7.37-4.55-9.28-9.27-18.48-13.91-27.72-.26-.53-.47-1.09-.7-1.63a5.42,5.42,0,0,1,1.81,1.46q9.36,10.59,18.72,21.18a9.28,9.28,0,0,0,8.74,3.47c11.64-1.64,23.3-3.15,35-4.77A8.88,8.88,0,0,0,297,212a9,9,0,0,0-10.16-7.66c-9.49,1.21-19,2.58-28.41,4a3.33,3.33,0,0,1-3.47-1.16c-4.77-5.53-9.66-11-14.49-16.44-.51-.58-1-1.2-1.45-1.81l.38-.32,10.88,7.2c0-4.18,0-7.69,0-11.2,0-6-3.32-9.33-9.34-9.41-4.79-.07-9.6.25-14.37-.11a62,62,0,0,0-32.83,6.25,7.91,7.91,0,0,1-1.51.63c-7.06,1.92-12.53,6-17.24,11.57-5.37,6.36-11.32,12.21-16.91,18.39A8.91,8.91,0,0,0,161,226.35c3.67,1.59,7.46.67,10.63-2.71,5.86-6.25,11.88-12.35,17.42-18.88,4.42-5.21,10.87-6.1,16.57-9.38Zm43.89-96.6a19.75,19.75,0,0,0-39.5,0,19.75,19.75,0,1,0,39.5,0Z" transform="translate(0 -125.53)"/><path d="M234.75,367.3c-3.45-.91-7-1.57-10.34-2.79-18.11-6.6-30.12-22.86-30.52-42.09-.34-16.62,6.74-29.78,20.46-39.74.82,2.65,1.61,5,2.26,7.39a2.64,2.64,0,0,1-.36,1.75c-1.56,2.83-2.68,5.79-4.79,8.46a32.48,32.48,0,0,0-5.76,11.91A82.1,82.1,0,0,1,201,325.86a17.18,17.18,0,0,0-.67,13.5,17,17,0,0,0,17.13,11.42,8.26,8.26,0,0,1,5.06,1.32,31.25,31.25,0,0,0,13.65,4.31v-4.35c0-5.1.51-10.28-.19-15.29-.44-3.18.79-5.4,1.85-7.91.22-.52.94-1.2,1.41-1.18,3.27.1,5.63-1.21,6.89-4.25,1.11-2.68.48-4.71-2.25-7.81A24.74,24.74,0,0,1,250.47,305c4.06-3.67,7.8-7.69,12-11.91-3.06-1.75-5.87-3.24-8.57-4.92a5.4,5.4,0,0,1-2.15-2.4c-1.13-3.15-2-6.4-3.24-10.47,4,1.42,7.52,2.42,10.82,3.86,16.61,7.31,27.33,25,26.87,43.19-.56,22.65-18.16,41.84-40,44.49a5.1,5.1,0,0,0-1.07.43Zm40.64-50.11a34.51,34.51,0,0,0-7.51-18.26c-4.87,4.87-9.66,9.61-14.35,14.44a2.39,2.39,0,0,0-.16,2.19,2.93,2.93,0,0,0,1.88,1.56c3,.16,6.11.07,9.17.07Zm0,7.91c-7,0-13.7,0-20.43,0-1.48,0-2.57,2.63-1.55,3.67,4.77,4.85,9.6,9.65,14.51,14.56A34.81,34.81,0,0,0,275.37,325.1Zm-31.29,31.43a35,35,0,0,0,18.22-7.68c-4.88-4.84-9.57-9.55-14.35-14.17a2.43,2.43,0,0,0-2.17-.3,2.89,2.89,0,0,0-1.62,1.8,59,59,0,0,0-.08,6.1Z" transform="translate(0 -125.53)"/><path d="M205.59,242.3V195.38c-5.7,3.28-12.15,4.17-16.57,9.38-5.54,6.53-11.56,12.63-17.42,18.88-3.17,3.38-7,4.3-10.63,2.71A8.91,8.91,0,0,1,158,211.87c5.59-6.18,11.54-12,16.91-18.39,4.71-5.58,10.18-9.65,17.24-11.57a7.91,7.91,0,0,0,1.51-.63A62,62,0,0,1,226.52,175c4.77.36,9.58,0,14.37.11,6,.08,9.31,3.42,9.34,9.41,0,3.51,0,7,0,11.2l-10.88-7.2-.38.32c.48.61.94,1.23,1.45,1.81,4.83,5.48,9.72,10.91,14.49,16.44a3.33,3.33,0,0,0,3.47,1.16c9.46-1.4,18.92-2.77,28.41-4A9,9,0,0,1,297,212a8.88,8.88,0,0,1-7.9,10.15c-11.65,1.62-23.31,3.13-35,4.77a9.28,9.28,0,0,1-8.74-3.47q-9.35-10.59-18.72-21.18a5.42,5.42,0,0,0-1.81-1.46c.23.54.44,1.1.7,1.63,4.64,9.24,9.36,18.44,13.91,27.72,2.45,5,6.5,7.26,11.86,7.37,6,.13,11.94.07,17.91.15,7.1.1,11.5,5.37,9.8,12.21-2.26,9.1-4.93,18.1-7.36,26.91l-17.75-8.4c.91-3.37,1.95-7.25,3-11.28h-22c1.61,5.32,3.16,10.48,4.73,15.63,1.62,5.31,3.23,10.63,4.89,15.93a10.3,10.3,0,0,1-.54,7.56c-6.13,13.65-12.23,27.31-18.44,40.92-2.46,5.38-7.83,7.44-12.9,5.2s-7.11-7.84-4.7-13.27c5.31-11.95,10.75-23.85,16-35.82a6.6,6.6,0,0,0,.32-4.18c-2.22-7.75-4.66-15.43-7-23.16a2.94,2.94,0,0,0-2.44-2.39c-3.66-.86-7.27-1.9-10.89-2.91-5.63-1.56-8.35-4.86-8.05-9.72S199.54,243.16,205.59,242.3Z" transform="translate(0 -125.53)"/><path d="M249.48,145.7A19.75,19.75,0,1,1,229.76,126,19.89,19.89,0,0,1,249.48,145.7Z" transform="translate(0 -125.53)"/><path class="cls-1" d="M275.39,317.19h-11c-3.06,0-6.13.09-9.17-.07a2.93,2.93,0,0,1-1.88-1.56,2.39,2.39,0,0,1,.16-2.19c4.69-4.83,9.48-9.57,14.35-14.44A34.51,34.51,0,0,1,275.39,317.19Z" transform="translate(0 -125.53)"/><path class="cls-1" d="M275.37,325.1a34.81,34.81,0,0,1-7.47,18.26c-4.91-4.91-9.74-9.71-14.51-14.56-1-1,.07-3.66,1.55-3.67C261.67,325.06,268.39,325.1,275.37,325.1Z" transform="translate(0 -125.53)"/><path class="cls-1" d="M244.08,356.53V342.28a59,59,0,0,1,.08-6.1,2.89,2.89,0,0,1,1.62-1.8,2.43,2.43,0,0,1,2.17.3c4.78,4.62,9.47,9.33,14.35,14.17A35,35,0,0,1,244.08,356.53Z" transform="translate(0 -125.53)"/><text class="cls-2" transform="translate(0 239.74) scale(1.19 1)"><tspan xml:space="preserve">M  </tspan></text><text class="cls-2" transform="translate(0 237.54) scale(1.24 1)"><tspan xml:space="preserve">     tus</tspan></text><path class="cls-3" d="M218,214.5c3.22,0,3.22-5,0-5s-3.22,5,0,5Z" transform="translate(0 -125.53)"/><path class="cls-3" d="M232,144.5c-3.22,0-3.22,5,0,5S235.22,144.5,232,144.5Z" transform="translate(0 -125.53)"/></svg>